<svg width="20" height="20" viewBox="0 0 20 20" fill="none" xmlns="http://www.w3.org/2000/svg">
<path d="M18.227 2.20158C17.9997 1.99041 17.731 1.82883 17.4379 1.72711C17.1448 1.6254 16.8338 1.58577 16.5245 1.61075C16.507 1.61075 16.4412 1.61075 16.4212 1.61075C14.2444 1.88086 12.144 2.58534 10.2445 3.68242L10.112 3.76575C10.0363 3.79103 9.95425 3.78956 9.87952 3.76158L9.68035 3.64158C7.78353 2.55688 5.68824 1.86402 3.51868 1.60408C3.20244 1.57413 2.88343 1.61106 2.58239 1.71246C2.28135 1.81387 2.00502 1.97749 1.77135 2.19268C1.53769 2.40788 1.35192 2.66983 1.22612 2.96152C1.10032 3.25322 1.03731 3.56811 1.04118 3.88575V13.9524C1.05269 14.5044 1.25859 15.0346 1.62261 15.4497C1.98663 15.8648 2.48543 16.1381 3.03118 16.2216L3.27535 16.2549C5.36777 16.6067 7.3949 17.2731 9.28785 18.2316C9.50599 18.3478 9.74989 18.4071 9.99702 18.4041C10.2401 18.4076 10.48 18.3485 10.6937 18.2324C12.578 17.2721 14.598 16.6055 16.6837 16.2557L16.9604 16.2224C17.508 16.1409 18.0092 15.8683 18.3752 15.4529C18.7412 15.0375 18.9485 14.506 18.9604 13.9524V3.89325C18.9633 3.57567 18.8995 3.261 18.7732 2.96961C18.6469 2.67821 18.4608 2.41657 18.227 2.20158ZM3.44285 15.0166L3.19285 14.9824C2.9477 14.9392 2.72467 14.8135 2.56069 14.6261C2.39672 14.4388 2.30164 14.2011 2.29118 13.9524V3.88575C2.28873 3.7408 2.31668 3.59694 2.37323 3.46346C2.42978 3.32997 2.51368 3.20982 2.61952 3.11075C2.8105 2.93744 3.05997 2.84278 3.31785 2.84575C3.35035 2.84575 3.38285 2.84575 3.41618 2.84575C5.39135 3.09054 7.29855 3.72382 9.02785 4.70908L9.22785 4.82825C9.27548 4.85193 9.32445 4.8728 9.37452 4.89075V16.8766C7.49322 15.9843 5.49682 15.3582 3.44285 15.0166ZM17.7079 13.9524C17.6976 14.201 17.6026 14.4385 17.4388 14.6257C17.2749 14.8129 17.052 14.9385 16.807 14.9816L16.5253 15.0157C14.482 15.3555 12.4959 15.9784 10.6245 16.8666V4.89325C10.6775 4.87455 10.7293 4.85256 10.7795 4.82742L10.9162 4.73992C12.6288 3.75725 14.517 3.11888 16.4745 2.86075C16.492 2.86075 16.5579 2.86075 16.577 2.86075C16.7211 2.84457 16.867 2.85937 17.0049 2.90416C17.1428 2.94896 17.2696 3.02271 17.3766 3.12048C17.4837 3.21825 17.5687 3.33778 17.6258 3.47106C17.6829 3.60433 17.7109 3.74828 17.7079 3.89325V13.9524Z" fill="#5783EC"/>
<path d="M3.95801 7.07739C3.95801 6.91163 4.02386 6.75266 4.14107 6.63545C4.25828 6.51824 4.41725 6.45239 4.58301 6.45239H6.45801C6.62377 6.45239 6.78274 6.51824 6.89995 6.63545C7.01716 6.75266 7.08301 6.91163 7.08301 7.07739C7.08301 7.24315 7.01716 7.40212 6.89995 7.51933C6.78274 7.63654 6.62377 7.70239 6.45801 7.70239H4.58301C4.41725 7.70239 4.25828 7.63654 4.14107 7.51933C4.02386 7.40212 3.95801 7.24315 3.95801 7.07739ZM7.08301 8.95239H4.58301C4.41725 8.95239 4.25828 9.01824 4.14107 9.13545C4.02386 9.25266 3.95801 9.41163 3.95801 9.57739C3.95801 9.74315 4.02386 9.90212 4.14107 10.0193C4.25828 10.1365 4.41725 10.2024 4.58301 10.2024H7.08301C7.24877 10.2024 7.40774 10.1365 7.52495 10.0193C7.64216 9.90212 7.70801 9.74315 7.70801 9.57739C7.70801 9.41163 7.64216 9.25266 7.52495 9.13545C7.40774 9.01824 7.24877 8.95239 7.08301 8.95239Z" fill="#0A225C"/>
</svg>
