<svg width="425" height="45" viewBox="0 0 425 45" fill="none" xmlns="http://www.w3.org/2000/svg">
<path d="M17.4168 7.41568C17.4168 4.0363 19.3232 2.64988 22.5292 2.64988C25.7787 2.64988 27.9883 4.2096 28.6815 7.45901L34.0105 33.4543H28.7248L23.7424 8.28219C23.4391 6.89578 23.0491 4.98946 21.3595 4.98946C19.6264 4.98946 18.9332 6.67915 18.9332 8.23887V8.28219C18.9332 8.4555 18.9332 8.71545 18.9766 8.88875L22.0527 28.3419C22.096 28.6452 22.096 28.9918 22.096 29.3384C22.096 32.3712 20.5796 33.5409 17.6768 33.5409C13.8641 33.5409 12.1311 29.9883 11.6112 26.7388L8.53512 6.63582C8.40514 5.72599 7.84191 4.64286 6.8021 4.64286C5.84894 4.64286 5.32903 5.55269 5.15573 6.4192C4.46252 9.53863 3.03278 16.6007 3.03278 19.7201C3.03278 24.2693 5.71896 29.8583 9.185 33.4543H1.12646C0.303278 31.5913 0 29.5983 0 27.6054C0 25.0925 0.433255 22.4496 0.823184 20.1534L0.909835 19.7634C1.77634 14.781 2.81616 9.75526 3.98594 4.85948C4.46252 2.99649 6.41217 2.47658 8.05854 2.47658C11.6112 2.47658 13.4309 4.07962 13.9508 7.50234L17.1569 28.6018C17.3302 29.5983 17.8501 30.9414 18.9766 30.9414C20.103 30.9414 20.6662 30.2049 20.6662 29.0784C20.6662 28.6452 20.5796 28.1686 20.5363 27.7353L17.5035 8.41217C17.4168 8.10889 17.4168 7.76229 17.4168 7.41568Z" fill="#4E85FD"/>
<path d="M45.3865 33.0562C43.553 33.0562 41.9453 32.6613 40.5631 31.8716C39.2092 31.0818 38.1515 29.9817 37.3899 28.5714C36.6283 27.1328 36.2475 25.4968 36.2475 23.6634C36.2475 21.7454 36.6706 20.0812 37.5168 18.6708C38.363 17.2605 39.4913 16.1604 40.9016 15.3706C42.3119 14.5809 43.8633 14.186 45.5557 14.186C47.3045 14.186 48.8277 14.5809 50.1252 15.3706C51.4509 16.1322 52.4663 17.2182 53.1715 18.6285C53.9049 20.0106 54.2716 21.6325 54.2716 23.4942C54.2716 25.2712 53.8767 26.879 53.0869 28.3175C52.2971 29.7561 51.2253 30.9125 49.8713 31.7869C48.5456 32.6331 47.0507 33.0562 45.3865 33.0562ZM45.8096 31.0677C46.7686 31.0677 47.6007 30.7856 48.3059 30.2215C49.011 29.6291 49.5611 28.8252 49.956 27.8098C50.3508 26.7661 50.5483 25.5815 50.5483 24.2558C50.5483 21.83 50.0406 19.8696 49.0251 18.3747C48.0379 16.8515 46.7263 16.0899 45.0903 16.0899C43.5671 16.0899 42.3401 16.7246 41.4093 17.9939C40.5067 19.2632 40.0554 20.9415 40.0554 23.0288C40.0554 24.6083 40.2952 26.0046 40.7747 27.2175C41.2824 28.4303 41.9735 29.3753 42.8479 30.0522C43.7223 30.7292 44.7095 31.0677 45.8096 31.0677Z" fill="#4E85FD"/>
<path d="M72.211 33.1832L71.5764 32.6331L71.6187 29.883L71.4918 29.8407C70.6456 31.0254 69.7711 31.8575 68.8685 32.337C67.9941 32.8165 67.0633 33.0562 66.0761 33.0562C64.4683 33.0562 63.0298 32.6895 61.7604 31.9562C60.5194 31.1946 59.5321 30.1509 58.7987 28.8252C58.0654 27.4995 57.6987 25.9764 57.6987 24.2558C57.6987 22.7608 57.9525 21.3928 58.4603 20.1517C58.968 18.9106 59.6591 17.8528 60.5335 16.9784C61.4361 16.0758 62.4515 15.3847 63.5798 14.9052C64.708 14.4257 65.8786 14.186 67.0915 14.186C67.8813 14.186 68.6852 14.2847 69.5032 14.4821C70.3212 14.6796 71.0122 14.9899 71.5764 15.413C71.5764 14.9052 71.5623 14.2424 71.5341 13.4244C71.5341 12.6064 71.52 11.7602 71.4918 10.8858C71.4918 9.98317 71.4777 9.19338 71.4494 8.51642C71.4494 7.81126 71.4353 7.33174 71.4071 7.07788L68.107 6.48554L68.0223 5.08931L74.2419 3.3546L75.0035 3.94694C74.9471 5.69575 74.9048 7.38816 74.8766 9.02414C74.8484 10.6601 74.8342 12.3666 74.8342 14.1437L74.7919 23.875C74.7919 25.3135 74.8201 26.5546 74.8766 27.5982C74.9612 28.6137 75.0176 29.333 75.0458 29.7561L77.7536 30.433V31.8292L72.211 33.1832ZM67.1338 30.2215C67.9518 30.2215 68.7134 30.0522 69.4186 29.7137C70.1237 29.3471 70.843 28.7124 71.5764 27.8098V18.7131C71.0404 17.7541 70.3635 17.0772 69.5455 16.6823C68.7275 16.2874 67.9095 16.0899 67.0915 16.0899C65.3145 16.0899 63.9183 16.7528 62.9028 18.0785C61.9156 19.376 61.422 21.0684 61.422 23.1557C61.422 25.384 61.972 27.1187 63.0721 28.3598C64.2003 29.6009 65.5542 30.2215 67.1338 30.2215Z" fill="#4E85FD"/>
<path d="M89.3043 33.0562C87.6683 33.0562 86.1874 32.6895 84.8617 31.9562C83.5642 31.2228 82.5206 30.1792 81.7308 28.8252C80.9692 27.4431 80.5884 25.8212 80.5884 23.9596C80.5884 21.9569 80.9974 20.2222 81.8154 18.7554C82.6334 17.2887 83.7052 16.1604 85.031 15.3706C86.3567 14.5527 87.7811 14.1578 89.3043 14.186C91.5044 14.2142 93.225 14.9475 94.4661 16.3861C95.7072 17.8246 96.3277 19.8555 96.3277 22.4787V23.2403H83.3386V21.3787H93.5353L93.0699 21.9287V21.0402C93.0699 19.4042 92.7032 18.149 91.9698 17.2746C91.2364 16.4002 90.2351 15.963 88.9658 15.963C88.176 15.963 87.4144 16.2027 86.6811 16.6823C85.9477 17.1336 85.3553 17.8387 84.904 18.7978C84.4527 19.7286 84.2271 20.9133 84.2271 22.3518V22.8595C84.2271 25.1725 84.7912 26.9777 85.9195 28.2752C87.0759 29.5727 88.5568 30.2215 90.362 30.2215C91.3493 30.2215 92.2378 30.024 93.0276 29.6291C93.8173 29.2342 94.5789 28.5996 95.3123 27.7252L96.37 28.6983C95.5803 30.1651 94.5789 31.2651 93.366 31.9985C92.1532 32.7037 90.7992 33.0562 89.3043 33.0562Z" fill="#4E85FD"/>
<path d="M99.2471 32.7178L99.1202 31.1946L101.743 30.5599C101.772 30.4189 101.8 30.1651 101.828 29.7984C101.856 29.4317 101.87 28.9381 101.87 28.3175C101.899 27.697 101.913 26.9354 101.913 26.0328L101.955 22.7326C101.955 21.8018 101.913 20.8851 101.828 19.9824C101.772 19.0798 101.701 18.3606 101.617 17.8246L98.9087 17.2323V15.8361L104.578 14.2706L105.171 14.8629L105.001 18.417L105.128 18.4593C105.974 16.8233 106.835 15.7232 107.709 15.1591C108.584 14.5668 109.402 14.2706 110.163 14.2706C110.812 14.2706 111.348 14.4398 111.771 14.7783C112.222 15.0886 112.448 15.5681 112.448 16.2168C112.448 16.8938 112.208 17.4156 111.729 17.7823C111.277 18.1208 110.699 18.29 109.994 18.29C109.486 18.29 108.993 18.1772 108.513 17.9516C108.062 17.7259 107.625 17.4156 107.201 17.0207L107.963 17.2746C107.427 17.6131 106.919 18.0926 106.44 18.7131C105.96 19.3055 105.523 20.053 105.128 20.9556L105.171 24.8904C105.199 25.5956 105.227 26.3289 105.255 27.0905C105.283 27.8521 105.312 28.5432 105.34 29.1637C105.368 29.7561 105.396 30.2215 105.424 30.5599L109.105 31.11L109.021 32.7178H99.2471Z" fill="#4E85FD"/>
<path d="M114.563 32.7178L114.479 31.1946L117.102 30.5599C117.13 30.3625 117.144 30.0945 117.144 29.7561C117.172 29.4176 117.201 28.9522 117.229 28.3598C117.257 27.7675 117.271 26.9918 117.271 26.0328L117.314 22.7749C117.314 21.8441 117.271 20.9274 117.187 20.0247C117.13 19.0939 117.06 18.3606 116.975 17.8246L114.267 17.2323V15.8361L119.937 14.2706L120.656 14.9475L120.444 17.19L120.571 17.2323C121.559 16.1604 122.532 15.3847 123.491 14.9052C124.45 14.4257 125.493 14.186 126.622 14.186C127.665 14.186 128.639 14.4539 129.541 14.9899C130.472 15.4976 131.219 16.2874 131.784 17.3592C132.376 18.4311 132.672 19.7991 132.672 21.4633V26.1597C132.672 27.1751 132.686 28.0919 132.714 28.9099C132.771 29.7278 132.841 30.2779 132.926 30.5599L135.549 31.1946L135.422 32.7178H126.918L126.833 31.1946L129.287 30.5599C129.315 30.3343 129.344 30.0522 129.372 29.7137C129.4 29.3753 129.414 28.9522 129.414 28.4444C129.442 27.9085 129.456 27.2457 129.456 26.4559V21.8864C129.456 20.6171 129.231 19.6158 128.78 18.8824C128.356 18.1208 127.821 17.5849 127.172 17.2746C126.523 16.9361 125.86 16.7669 125.183 16.7669C124.252 16.7669 123.378 17.0066 122.56 17.4861C121.77 17.9375 121.093 18.5721 120.529 19.3901V25.7366C120.529 27.0341 120.543 28.0919 120.571 28.9099C120.628 29.6996 120.684 30.2497 120.741 30.5599L123.364 31.1946L123.237 32.7178H114.563Z" fill="#4E85FD"/>
<path d="M153.852 2C163.211 2 170.143 8.58547 170.143 18.0304C170.143 27.4754 163.211 34.0175 153.852 34.0175C144.494 34.0175 137.519 27.4754 137.519 18.0304C137.519 8.54215 144.494 2 153.852 2ZM155.499 32.3278C162.301 32.3278 165.507 26.5222 165.507 20.37C165.507 12.8747 160.481 3.73302 152.119 3.73302C145.361 3.73302 142.155 9.45198 142.155 15.6042C142.155 23.0129 147.31 32.1112 155.499 32.3278Z" fill="#4E85FD"/>
<path d="M172.401 42.026L172.317 40.5028L174.94 39.8682C174.94 39.7271 174.94 39.4733 174.94 39.1066C174.968 38.7681 174.996 38.3168 175.024 37.7526C175.053 37.1885 175.067 36.5116 175.067 35.7218C175.095 34.932 175.109 34.0153 175.109 32.9716L175.194 22.521C175.194 21.6748 175.151 20.8145 175.067 19.9401C175.01 19.0657 174.94 18.3606 174.855 17.8246L172.147 17.2323V15.8361L177.817 14.2706L178.536 14.9475L178.325 17.2746H178.451C179.241 16.2592 180.102 15.4976 181.032 14.9899C181.991 14.4539 183.021 14.186 184.121 14.186C185.672 14.186 187.04 14.5809 188.225 15.3706C189.438 16.1322 190.383 17.19 191.06 18.5439C191.765 19.8696 192.118 21.4069 192.118 23.1557C192.118 25.0173 191.695 26.6956 190.848 28.1906C190.002 29.6855 188.846 30.8702 187.379 31.7446C185.94 32.5908 184.304 33.0139 182.471 33.0139C181.794 33.0139 181.089 32.9434 180.355 32.8024C179.622 32.6613 178.973 32.4921 178.409 32.2947V35.4679C178.409 36.5398 178.423 37.4424 178.451 38.1757C178.508 38.9373 178.55 39.5015 178.578 39.8682L182.048 40.4182L181.963 42.026H172.401ZM182.598 30.9407C183.726 30.9407 184.713 30.6728 185.56 30.1368C186.434 29.6009 187.111 28.8111 187.59 27.7675C188.098 26.7238 188.366 25.4545 188.394 23.9596C188.423 22.6057 188.197 21.4069 187.717 20.3632C187.266 19.3196 186.617 18.5016 185.771 17.9092C184.953 17.2887 184.008 16.9784 182.936 16.9784C182.062 16.9784 181.244 17.19 180.482 17.6131C179.721 18.008 179.03 18.6003 178.409 19.3901V29.6291C178.973 30.0522 179.622 30.3766 180.355 30.6023C181.089 30.8279 181.836 30.9407 182.598 30.9407Z" fill="#4E85FD"/>
<path d="M208.492 30.0945C207.956 31.0254 207.222 31.7587 206.291 32.2947C205.361 32.8024 204.388 33.0562 203.372 33.0562C201.651 33.0562 200.241 32.5344 199.141 31.4908C198.041 30.4471 197.491 28.8816 197.491 26.7944L197.618 16.6823H194.656V15.7937L200.114 10.8435H200.918L200.834 15.7091L200.791 26.1174C200.791 27.5841 201.101 28.6701 201.722 29.3753C202.371 30.0804 203.273 30.433 204.43 30.433C205.079 30.433 205.671 30.3061 206.207 30.0522C206.771 29.7984 207.279 29.4599 207.73 29.0368L208.492 30.0945ZM199.31 16.6823V14.5668H207.222V16.6823H199.31Z" fill="#4E85FD"/>
<path d="M209.38 32.7178L209.295 31.1523L212.13 30.5599C212.158 30.4471 212.173 30.2497 212.173 29.9676C212.201 29.6855 212.229 29.2342 212.257 28.6137C212.285 27.9931 212.3 27.1328 212.3 26.0328V23.2403C212.3 22.0838 212.271 21.0261 212.215 20.0671C212.158 19.108 212.088 18.3606 212.003 17.8246L209.169 17.2323V15.8361L215.177 14.2706L215.811 14.8629C215.727 15.7373 215.656 16.5976 215.6 17.4438C215.571 18.29 215.557 19.2773 215.557 20.4055V25.7366C215.557 27.0341 215.571 28.106 215.6 28.9522C215.656 29.7984 215.713 30.3343 215.769 30.5599L218.604 31.1523L218.519 32.7178H209.38ZM213.95 9.48955C213.244 9.48955 212.624 9.2498 212.088 8.77028C211.58 8.29077 211.326 7.69843 211.326 6.99326C211.326 6.28809 211.58 5.69575 212.088 5.21624C212.624 4.73673 213.244 4.49697 213.95 4.49697C214.683 4.49697 215.289 4.73673 215.769 5.21624C216.248 5.69575 216.488 6.28809 216.488 6.99326C216.488 7.69843 216.248 8.29077 215.769 8.77028C215.289 9.2498 214.683 9.48955 213.95 9.48955Z" fill="#4E85FD"/>
<path d="M230.027 33.0562C228.448 33.0562 226.995 32.7037 225.67 31.9985C224.344 31.2651 223.286 30.2215 222.496 28.8675C221.706 27.4854 221.312 25.8494 221.312 23.9596C221.312 22.1261 221.721 20.4761 222.539 19.0093C223.385 17.5144 224.527 16.3438 225.966 15.4976C227.432 14.6232 229.068 14.186 230.874 14.186C232.115 14.186 233.158 14.3411 234.005 14.6514C234.851 14.9616 235.485 15.3706 235.909 15.8784C236.36 16.3861 236.585 16.922 236.585 17.4861C236.585 17.9375 236.444 18.3182 236.162 18.6285C235.88 18.9106 235.485 19.0516 234.978 19.0516C234.526 19.0516 234.132 18.967 233.793 18.7978C233.455 18.6285 233.046 18.29 232.566 17.7823L230.408 15.6245L231.931 16.0476C230.803 15.7937 229.717 15.9066 228.674 16.3861C227.63 16.8374 226.77 17.6413 226.093 18.7978C225.416 19.926 225.077 21.3928 225.077 23.198C225.077 25.4545 225.641 27.1892 226.77 28.4021C227.926 29.615 229.365 30.2215 231.085 30.2215C232.157 30.2215 233.074 30.024 233.835 29.6291C234.625 29.2342 235.373 28.5996 236.078 27.7252L237.22 28.6983C236.43 30.1651 235.429 31.2651 234.216 31.9985C233.003 32.7037 231.607 33.0562 230.027 33.0562Z" fill="#4E85FD"/>
<path d="M238.701 32.7178L238.616 31.1523L241.451 30.5599C241.479 30.4471 241.493 30.2497 241.493 29.9676C241.522 29.6855 241.55 29.2342 241.578 28.6137C241.606 27.9931 241.62 27.1328 241.62 26.0328V23.2403C241.62 22.0838 241.592 21.0261 241.536 20.0671C241.479 19.108 241.409 18.3606 241.324 17.8246L238.489 17.2323V15.8361L244.497 14.2706L245.132 14.8629C245.047 15.7373 244.977 16.5976 244.921 17.4438C244.892 18.29 244.878 19.2773 244.878 20.4055V25.7366C244.878 27.0341 244.892 28.106 244.921 28.9522C244.977 29.7984 245.033 30.3343 245.09 30.5599L247.925 31.1523L247.84 32.7178H238.701ZM243.27 9.48955C242.565 9.48955 241.945 9.2498 241.409 8.77028C240.901 8.29077 240.647 7.69843 240.647 6.99326C240.647 6.28809 240.901 5.69575 241.409 5.21624C241.945 4.73673 242.565 4.49697 243.27 4.49697C244.004 4.49697 244.61 4.73673 245.09 5.21624C245.569 5.69575 245.809 6.28809 245.809 6.99326C245.809 7.69843 245.569 8.29077 245.09 8.77028C244.61 9.2498 244.004 9.48955 243.27 9.48955Z" fill="#4E85FD"/>
<path d="M257.19 33.0562C256.062 33.0562 255.061 32.8306 254.186 32.3793C253.312 31.928 252.621 31.3497 252.113 30.6446C251.634 29.9394 251.394 29.206 251.394 28.4444C251.394 27.4854 251.704 26.6956 252.325 26.0751C252.945 25.4545 253.961 24.9186 255.371 24.4673L261.802 22.3095V20.1517C261.802 19.4465 261.591 18.8119 261.168 18.2477C260.744 17.6554 260.18 17.19 259.475 16.8515C258.77 16.513 257.98 16.3438 257.106 16.3438C256.401 16.3438 255.921 16.4989 255.667 16.8092C255.413 17.0913 255.258 17.6695 255.202 18.5439L255.117 20.3209C254.102 20.5466 253.242 20.5184 252.536 20.2363C251.831 19.926 251.479 19.4324 251.479 18.7554C251.479 18.2759 251.676 17.7964 252.071 17.3169C252.494 16.8374 253.044 16.3861 253.721 15.963C254.398 15.5117 255.131 15.1309 255.921 14.8206C256.711 14.5103 257.487 14.2988 258.248 14.186C260.335 14.186 262 14.736 263.241 15.8361C264.51 16.9361 265.159 18.3747 265.187 20.1517L265.102 27.2598C265.102 27.7957 265.117 28.3175 265.145 28.8252C265.201 29.333 265.272 29.7137 265.356 29.9676L268.064 30.4753V31.7869L265.991 32.5485C265.596 32.6895 265.229 32.8024 264.891 32.887C264.552 32.9998 264.27 33.0562 264.045 33.0562C263.17 33.0562 262.606 32.5626 262.352 31.5754L261.887 29.9253H262.522C261.591 30.9689 260.688 31.7587 259.814 32.2947C258.967 32.8024 258.093 33.0562 257.19 33.0562ZM258.333 30.5599C258.982 30.5599 259.588 30.4189 260.152 30.1368C260.716 29.8266 261.266 29.3612 261.802 28.7406V24.2981L257.064 25.5674C256.387 25.7366 255.893 26.0046 255.583 26.3713C255.301 26.7379 255.16 27.2033 255.16 27.7675C255.16 28.4727 255.47 29.1214 256.09 29.7137C256.739 30.2779 257.487 30.5599 258.333 30.5599Z" fill="#4E85FD"/>
<path d="M270.264 32.7178L270.18 31.1946L272.803 30.5599C272.831 30.3625 272.845 30.0945 272.845 29.7561C272.873 29.4176 272.902 28.9522 272.93 28.3598C272.958 27.7675 272.972 26.9918 272.972 26.0328L273.014 22.7749C273.014 21.8441 272.972 20.9274 272.887 20.0247C272.831 19.0939 272.761 18.3606 272.676 17.8246L269.968 17.2323V15.8361L275.638 14.2706L276.357 14.9475L276.145 17.19L276.272 17.2323C277.26 16.1604 278.233 15.3847 279.192 14.9052C280.151 14.4257 281.194 14.186 282.323 14.186C283.366 14.186 284.339 14.4539 285.242 14.9899C286.173 15.4976 286.92 16.2874 287.484 17.3592C288.077 18.4311 288.373 19.7991 288.373 21.4633V26.1597C288.373 27.1751 288.387 28.0919 288.415 28.9099C288.472 29.7278 288.542 30.2779 288.627 30.5599L291.25 31.1946L291.123 32.7178H282.619L282.534 31.1946L284.988 30.5599C285.016 30.3343 285.045 30.0522 285.073 29.7137C285.101 29.3753 285.115 28.9522 285.115 28.4444C285.143 27.9085 285.157 27.2457 285.157 26.4559V21.8864C285.157 20.6171 284.932 19.6158 284.48 18.8824C284.057 18.1208 283.521 17.5849 282.873 17.2746C282.224 16.9361 281.561 16.7669 280.884 16.7669C279.953 16.7669 279.079 17.0066 278.261 17.4861C277.471 17.9375 276.794 18.5721 276.23 19.3901V25.7366C276.23 27.0341 276.244 28.0919 276.272 28.9099C276.329 29.6996 276.385 30.2497 276.442 30.5599L279.065 31.1946L278.938 32.7178H270.264Z" fill="#4E85FD"/>
<path d="M319.995 24.6592L320.905 25.0058C319.518 30.5948 313.886 34.0608 308.514 34.0608C299.588 34.0608 293.22 26.9988 293.22 18.2037C293.22 8.49882 300.325 2.38993 309.77 2.38993C313.409 2.38993 317.265 3.25644 320.385 5.63934L317.482 9.71193C315.142 6.50585 311.503 4.07962 307.69 4.07962C301.105 4.07962 298.245 10.3185 298.245 16.1241C298.245 23.5761 302.838 30.3349 310.766 30.3349C314.579 30.3349 318.348 28.4719 319.995 24.6592Z" fill="#4E85FD"/>
<path d="M322.559 32.7178L322.475 31.1523L325.225 30.5599C325.281 30.2779 325.324 29.8125 325.352 29.1637C325.38 28.515 325.394 27.6547 325.394 26.5828C325.422 25.5109 325.437 24.1993 325.437 22.648V17.3592C325.437 16.2874 325.422 15.1873 325.394 14.059C325.394 12.9308 325.38 11.873 325.352 10.8858C325.352 9.87034 325.338 9.01004 325.31 8.30487C325.31 7.5715 325.295 7.09199 325.267 6.86633L322.136 6.44323L322.052 5.08931L328.102 3.3546L328.906 3.94694C328.878 5.13162 328.85 6.3163 328.821 7.50098C328.793 8.68566 328.765 9.99727 328.737 11.4358C328.737 12.8744 328.737 14.6091 328.737 16.6399L328.694 23.4519C328.694 25.1161 328.708 26.6251 328.737 27.979C328.793 29.3047 328.85 30.1651 328.906 30.5599L331.656 31.1523L331.571 32.7178H322.559Z" fill="#4E85FD"/>
<path d="M341.049 33.0562C339.921 33.0562 338.919 32.8306 338.045 32.3793C337.17 31.928 336.479 31.3497 335.972 30.6446C335.492 29.9394 335.252 29.206 335.252 28.4444C335.252 27.4854 335.563 26.6956 336.183 26.0751C336.804 25.4545 337.819 24.9186 339.23 24.4673L345.661 22.3095V20.1517C345.661 19.4465 345.449 18.8119 345.026 18.2477C344.603 17.6554 344.039 17.19 343.334 16.8515C342.628 16.513 341.839 16.3438 340.964 16.3438C340.259 16.3438 339.78 16.4989 339.526 16.8092C339.272 17.0913 339.117 17.6695 339.06 18.5439L338.976 20.3209C337.96 20.5466 337.1 20.5184 336.395 20.2363C335.69 19.926 335.337 19.4324 335.337 18.7554C335.337 18.2759 335.535 17.7964 335.929 17.3169C336.353 16.8374 336.903 16.3861 337.58 15.963C338.256 15.5117 338.99 15.1309 339.78 14.8206C340.569 14.5103 341.345 14.2988 342.107 14.186C344.194 14.186 345.858 14.736 347.099 15.8361C348.369 16.9361 349.017 18.3747 349.046 20.1517L348.961 27.2598C348.961 27.7957 348.975 28.3175 349.003 28.8252C349.06 29.333 349.13 29.7137 349.215 29.9676L351.923 30.4753V31.7869L349.849 32.5485C349.455 32.6895 349.088 32.8024 348.749 32.887C348.411 32.9998 348.129 33.0562 347.903 33.0562C347.029 33.0562 346.465 32.5626 346.211 31.5754L345.745 29.9253H346.38C345.449 30.9689 344.547 31.7587 343.672 32.2947C342.826 32.8024 341.952 33.0562 341.049 33.0562ZM342.191 30.5599C342.84 30.5599 343.446 30.4189 344.011 30.1368C344.575 29.8266 345.125 29.3612 345.661 28.7406V24.2981L340.922 25.5674C340.245 25.7366 339.751 26.0046 339.441 26.3713C339.159 26.7379 339.018 27.2033 339.018 27.7675C339.018 28.4727 339.328 29.1214 339.949 29.7137C340.598 30.2779 341.345 30.5599 342.191 30.5599Z" fill="#4E85FD"/>
<path d="M361.104 33.0562C360.06 33.0562 359.017 32.9434 357.973 32.7178C356.929 32.4639 356.041 32.1395 355.307 31.7446L355.096 27.2175H357.169L358.015 30.2638C359.002 30.9407 360.131 31.2792 361.4 31.2792C362.359 31.2792 363.135 31.0536 363.727 30.6023C364.319 30.1227 364.616 29.4881 364.616 28.6983C364.616 27.9649 364.348 27.3303 363.812 26.7944C363.276 26.2302 362.232 25.6238 360.681 24.975C358.678 24.1006 357.268 23.2685 356.45 22.4787C355.632 21.6607 355.223 20.6171 355.223 19.3478C355.223 18.3323 355.519 17.4438 356.111 16.6823C356.732 15.8925 357.578 15.286 358.65 14.8629C359.722 14.4116 360.963 14.186 362.373 14.186C363.163 14.186 363.967 14.2565 364.785 14.3975C365.603 14.5385 366.28 14.7219 366.816 14.9475L367.281 19.3478H365.293L364.277 16.4707C363.995 16.3015 363.657 16.1745 363.262 16.0899C362.867 15.9771 362.444 15.9207 361.992 15.9207C361.005 15.9207 360.215 16.1604 359.623 16.6399C359.031 17.0913 358.735 17.6836 358.735 18.417C358.735 19.2632 359.059 19.9542 359.708 20.4902C360.356 20.9979 361.499 21.6325 363.135 22.3941C364.996 23.2403 366.294 24.0724 367.027 24.8904C367.761 25.7084 368.127 26.6956 368.127 27.8521C368.127 29.3753 367.464 30.6305 366.139 31.6177C364.813 32.5767 363.135 33.0562 361.104 33.0562Z" fill="#4E85FD"/>
<path d="M378.113 33.0562C377.069 33.0562 376.025 32.9434 374.982 32.7178C373.938 32.4639 373.049 32.1395 372.316 31.7446L372.104 27.2175H374.178L375.024 30.2638C376.011 30.9407 377.139 31.2792 378.409 31.2792C379.368 31.2792 380.143 31.0536 380.736 30.6023C381.328 30.1227 381.624 29.4881 381.624 28.6983C381.624 27.9649 381.356 27.3303 380.82 26.7944C380.284 26.2302 379.241 25.6238 377.689 24.975C375.687 24.1006 374.276 23.2685 373.458 22.4787C372.64 21.6607 372.231 20.6171 372.231 19.3478C372.231 18.3323 372.528 17.4438 373.12 16.6823C373.74 15.8925 374.587 15.286 375.659 14.8629C376.73 14.4116 377.971 14.186 379.382 14.186C380.172 14.186 380.975 14.2565 381.793 14.3975C382.611 14.5385 383.288 14.7219 383.824 14.9475L384.29 19.3478H382.301L381.286 16.4707C381.004 16.3015 380.665 16.1745 380.27 16.0899C379.875 15.9771 379.452 15.9207 379.001 15.9207C378.014 15.9207 377.224 16.1604 376.632 16.6399C376.039 17.0913 375.743 17.6836 375.743 18.417C375.743 19.2632 376.068 19.9542 376.716 20.4902C377.365 20.9979 378.507 21.6325 380.143 22.3941C382.005 23.2403 383.303 24.0724 384.036 24.8904C384.769 25.7084 385.136 26.6956 385.136 27.8521C385.136 29.3753 384.473 30.6305 383.147 31.6177C381.822 32.5767 380.143 33.0562 378.113 33.0562Z" fill="#4E85FD"/>
<path d="M397.321 33.0562C395.685 33.0562 394.204 32.6895 392.879 31.9562C391.581 31.2228 390.538 30.1792 389.748 28.8252C388.986 27.4431 388.605 25.8212 388.605 23.9596C388.605 21.9569 389.014 20.2222 389.832 18.7554C390.65 17.2887 391.722 16.1604 393.048 15.3706C394.374 14.5527 395.798 14.1578 397.321 14.186C399.521 14.2142 401.242 14.9475 402.483 16.3861C403.724 17.8246 404.345 19.8555 404.345 22.4787V23.2403H391.356V21.3787H401.552L401.087 21.9287V21.0402C401.087 19.4042 400.72 18.149 399.987 17.2746C399.253 16.4002 398.252 15.963 396.983 15.963C396.193 15.963 395.431 16.2027 394.698 16.6823C393.965 17.1336 393.372 17.8387 392.921 18.7978C392.47 19.7286 392.244 20.9133 392.244 22.3518V22.8595C392.244 25.1725 392.808 26.9777 393.936 28.2752C395.093 29.5727 396.574 30.2215 398.379 30.2215C399.366 30.2215 400.255 30.024 401.045 29.6291C401.834 29.2342 402.596 28.5996 403.329 27.7252L404.387 28.6983C403.597 30.1651 402.596 31.2651 401.383 31.9985C400.17 32.7037 398.816 33.0562 397.321 33.0562Z" fill="#4E85FD"/>
<path d="M414.161 33.0562C413.117 33.0562 412.073 32.9434 411.03 32.7178C409.986 32.4639 409.098 32.1395 408.364 31.7446L408.153 27.2175H410.226L411.072 30.2638C412.059 30.9407 413.187 31.2792 414.457 31.2792C415.416 31.2792 416.192 31.0536 416.784 30.6023C417.376 30.1227 417.672 29.4881 417.672 28.6983C417.672 27.9649 417.404 27.3303 416.868 26.7944C416.333 26.2302 415.289 25.6238 413.738 24.975C411.735 24.1006 410.325 23.2685 409.507 22.4787C408.689 21.6607 408.28 20.6171 408.28 19.3478C408.28 18.3323 408.576 17.4438 409.168 16.6823C409.789 15.8925 410.635 15.286 411.707 14.8629C412.778 14.4116 414.02 14.186 415.43 14.186C416.22 14.186 417.024 14.2565 417.842 14.3975C418.66 14.5385 419.337 14.7219 419.872 14.9475L420.338 19.3478H418.349L417.334 16.4707C417.052 16.3015 416.713 16.1745 416.318 16.0899C415.924 15.9771 415.5 15.9207 415.049 15.9207C414.062 15.9207 413.272 16.1604 412.68 16.6399C412.087 17.0913 411.791 17.6836 411.791 18.417C411.791 19.2632 412.116 19.9542 412.764 20.4902C413.413 20.9979 414.556 21.6325 416.192 22.3941C418.053 23.2403 419.351 24.0724 420.084 24.8904C420.817 25.7084 421.184 26.6956 421.184 27.8521C421.184 29.3753 420.521 30.6305 419.196 31.6177C417.87 32.5767 416.192 33.0562 414.161 33.0562Z" fill="#4E85FD"/>
</svg>
