<svg width="428" height="45" viewBox="0 0 428 45" fill="none" xmlns="http://www.w3.org/2000/svg">
<path d="M17.3004 9.7447C17.3004 6.38791 19.1939 5.01077 22.3786 5.01077C25.6063 5.01077 27.8011 6.56006 28.4897 9.78774L33.7831 35.6092H28.5327L23.5836 10.6054C23.2823 9.22827 22.895 7.3347 21.2166 7.3347C19.4952 7.3347 18.8066 9.0131 18.8066 10.5624V10.6054C18.8066 10.7776 18.8066 11.0358 18.8497 11.2079L21.9052 30.531C21.9482 30.8322 21.9482 31.1765 21.9482 31.5208C21.9482 34.5333 20.442 35.6953 17.5586 35.6953C13.7714 35.6953 12.05 32.1663 11.5336 28.9386L8.47804 8.97006C8.34893 8.06631 7.78947 6.99042 6.75661 6.99042C5.80983 6.99042 5.2934 7.89417 5.12125 8.75488C4.43268 11.8535 3.0125 18.8683 3.0125 21.9669C3.0125 26.4856 5.68072 32.0372 9.12358 35.6092H1.11893C0.30125 33.7586 0 31.779 0 29.7994C0 27.3033 0.430357 24.6781 0.817679 22.3972L0.90375 22.0099C1.76447 17.0608 2.79732 12.0686 3.95929 7.2056C4.43268 5.35506 6.36929 4.83863 8.00465 4.83863C11.5336 4.83863 13.3411 6.43095 13.8575 9.83077L17.0422 30.7892C17.2143 31.779 17.7307 33.1131 18.8497 33.1131C19.9686 33.1131 20.528 32.3815 20.528 31.2626C20.528 30.8322 20.442 30.3588 20.3989 29.9285L17.3864 10.7345C17.3004 10.4333 17.3004 10.089 17.3004 9.7447Z" fill="url(#paint0_linear_124_1185)"/>
<path d="M45.083 35.2138C43.2618 35.2138 41.6648 34.8215 40.2919 34.037C38.947 33.2525 37.8963 32.1598 37.1398 30.7589C36.3834 29.33 36.0051 27.705 36.0051 25.8838C36.0051 23.9786 36.4254 22.3255 37.2659 20.9246C38.1065 19.5237 39.2272 18.431 40.6281 17.6465C42.029 16.862 43.57 16.4697 45.2511 16.4697C46.9882 16.4697 48.5012 16.862 49.79 17.6465C51.1068 18.403 52.1155 19.4817 52.8159 20.8826C53.5444 22.2554 53.9087 23.8665 53.9087 25.7157C53.9087 27.4808 53.5164 29.0778 52.7319 30.5068C51.9474 31.9357 50.8827 33.0844 49.5378 33.953C48.221 34.7935 46.736 35.2138 45.083 35.2138ZM45.5032 33.2385C46.4558 33.2385 47.2824 32.9583 47.9828 32.398C48.6833 31.8096 49.2296 31.0111 49.6219 30.0024C50.0141 28.9658 50.2103 27.789 50.2103 26.4722C50.2103 24.0626 49.7059 22.1153 48.6973 20.6304C47.7167 19.1174 46.4138 18.3609 44.7888 18.3609C43.2758 18.3609 42.057 18.9913 41.1324 20.2521C40.2358 21.513 39.7876 23.18 39.7876 25.2534C39.7876 26.8224 40.0257 28.2093 40.502 29.4141C41.0063 30.6188 41.6928 31.5574 42.5613 32.2299C43.4299 32.9023 44.4105 33.2385 45.5032 33.2385Z" fill="url(#paint1_linear_124_1185)"/>
<path d="M71.7281 35.3399L71.0977 34.7935L71.1398 32.0618L71.0137 32.0197C70.1731 33.1965 69.3046 34.023 68.408 34.4993C67.5394 34.9756 66.6148 35.2138 65.6342 35.2138C64.0372 35.2138 62.6083 34.8496 61.3474 34.1211C60.1147 33.3646 59.134 32.3279 58.4056 31.0111C57.6771 29.6942 57.3128 28.1813 57.3128 26.4722C57.3128 24.9872 57.565 23.6283 58.0693 22.3955C58.5737 21.1627 59.2601 20.1121 60.1287 19.2435C61.0252 18.3469 62.0339 17.6605 63.1546 17.1842C64.2753 16.7079 65.4381 16.4697 66.6429 16.4697C67.4274 16.4697 68.2259 16.5678 69.0384 16.7639C69.8509 16.96 70.5374 17.2682 71.0977 17.6885C71.0977 17.1842 71.0837 16.5257 71.0557 15.7132C71.0557 14.9007 71.0417 14.0602 71.0137 13.1916C71.0137 12.295 70.9997 11.5105 70.9717 10.8381C70.9717 10.1376 70.9576 9.66132 70.9296 9.40916L67.6515 8.82078L67.5675 7.43389L73.7454 5.71078L74.5019 6.29916C74.4459 8.03627 74.4039 9.71736 74.3758 11.3424C74.3478 12.9675 74.3338 14.6625 74.3338 16.4277L74.2918 26.0939C74.2918 27.5228 74.3198 28.7556 74.3758 29.7923C74.4599 30.8009 74.5159 31.5154 74.544 31.9357L77.2337 32.6081V33.995L71.7281 35.3399ZM66.6849 32.398C67.4974 32.398 68.2539 32.2299 68.9544 31.8937C69.6548 31.5294 70.3693 30.899 71.0977 30.0024V20.9666C70.5654 20.014 69.893 19.3416 69.0804 18.9493C68.2679 18.5571 67.4554 18.3609 66.6429 18.3609C64.8777 18.3609 63.4908 19.0194 62.4822 20.3362C61.5015 21.625 61.0112 23.3061 61.0112 25.3795C61.0112 27.5929 61.5576 29.316 62.6503 30.5488C63.771 31.7816 65.1159 32.398 66.6849 32.398Z" fill="url(#paint2_linear_124_1185)"/>
<path d="M88.7071 35.2138C87.082 35.2138 85.6111 34.8496 84.2942 34.1211C83.0054 33.3926 81.9687 32.356 81.1842 31.0111C80.4277 29.6382 80.0495 28.0272 80.0495 26.178C80.0495 24.1887 80.4558 22.4656 81.2683 21.0086C82.0808 19.5517 83.1455 18.431 84.4623 17.6465C85.7792 16.8339 87.1941 16.4417 88.7071 16.4697C90.8925 16.4977 92.6016 17.2262 93.8344 18.6551C95.0672 20.084 95.6836 22.1013 95.6836 24.707V25.4635H82.7813V23.6143H92.9098L92.4475 24.1607V23.2781C92.4475 21.6531 92.0833 20.4062 91.3548 19.5377C90.6263 18.6691 89.6317 18.2348 88.3709 18.2348C87.5864 18.2348 86.8299 18.473 86.1014 18.9493C85.3729 19.3976 84.7846 20.098 84.3363 21.0507C83.888 21.9753 83.6638 23.152 83.6638 24.5809V25.0853C83.6638 27.3827 84.2242 29.1759 85.3449 30.4647C86.4937 31.7536 87.9646 32.398 89.7578 32.398C90.7384 32.398 91.621 32.2019 92.4055 31.8096C93.19 31.4173 93.9465 30.7869 94.6749 29.9184L95.7256 30.885C94.9411 32.3419 93.9465 33.4346 92.7417 34.1631C91.5369 34.8636 90.192 35.2138 88.7071 35.2138Z" fill="url(#paint3_linear_124_1185)"/>
<path d="M98.5835 34.8776L98.4574 33.3646L101.063 32.7342C101.091 32.5941 101.119 32.3419 101.147 31.9777C101.175 31.6135 101.189 31.1232 101.189 30.5068C101.217 29.8904 101.231 29.1339 101.231 28.2373L101.273 24.9592C101.273 24.0346 101.231 23.124 101.147 22.2274C101.091 21.3308 101.021 20.6164 100.937 20.084L98.2472 19.4957V18.1088L103.879 16.5538L104.467 17.1421L104.299 20.6724L104.425 20.7144C105.266 19.0894 106.12 17.9967 106.989 17.4363C107.857 16.848 108.67 16.5538 109.426 16.5538C110.071 16.5538 110.603 16.7219 111.023 17.0581C111.472 17.3663 111.696 17.8426 111.696 18.487C111.696 19.1594 111.458 19.6778 110.981 20.042C110.533 20.3782 109.959 20.5463 109.258 20.5463C108.754 20.5463 108.264 20.4343 107.787 20.2101C107.339 19.986 106.905 19.6778 106.485 19.2855L107.241 19.5377C106.709 19.8739 106.204 20.3502 105.728 20.9666C105.252 21.555 104.817 22.2975 104.425 23.194L104.467 27.1026C104.495 27.803 104.523 28.5315 104.551 29.288C104.579 30.0445 104.607 30.7309 104.635 31.3473C104.663 31.9357 104.691 32.398 104.719 32.7342L108.376 33.2805L108.292 34.8776H98.5835Z" fill="url(#paint4_linear_124_1185)"/>
<path d="M113.797 34.8776L113.713 33.3646L116.319 32.7342C116.347 32.5381 116.361 32.2719 116.361 31.9357C116.389 31.5995 116.417 31.1372 116.445 30.5488C116.473 29.9604 116.487 29.1899 116.487 28.2373L116.529 25.0012C116.529 24.0766 116.487 23.166 116.403 22.2694C116.347 21.3449 116.277 20.6164 116.193 20.084L113.503 19.4957V18.1088L119.135 16.5538L119.849 17.2262L119.639 19.4536L119.765 19.4957C120.746 18.431 121.712 17.6605 122.665 17.1842C123.618 16.7079 124.654 16.4697 125.775 16.4697C126.812 16.4697 127.778 16.7359 128.675 17.2682C129.599 17.7726 130.342 18.5571 130.902 19.6217C131.491 20.6864 131.785 22.0453 131.785 23.6984V28.3634C131.785 29.372 131.799 30.2826 131.827 31.0951C131.883 31.9077 131.953 32.454 132.037 32.7342L134.643 33.3646L134.517 34.8776H126.069L125.985 33.3646L128.423 32.7342C128.451 32.5101 128.479 32.2299 128.507 31.8937C128.535 31.5574 128.549 31.1372 128.549 30.6328C128.577 30.1005 128.591 29.4421 128.591 28.6576V24.1186C128.591 22.8578 128.367 21.8632 127.918 21.1347C127.498 20.3782 126.966 19.8459 126.321 19.5377C125.677 19.2015 125.018 19.0334 124.346 19.0334C123.421 19.0334 122.553 19.2715 121.74 19.7478C120.956 20.1961 120.283 20.8265 119.723 21.639V27.9431C119.723 29.2319 119.737 30.2826 119.765 31.0951C119.821 31.8796 119.877 32.426 119.933 32.7342L122.539 33.3646L122.413 34.8776H113.797Z" fill="url(#paint5_linear_124_1185)"/>
<path d="M152.824 4.36523C162.119 4.36523 169.005 10.9067 169.005 20.2885C169.005 29.6703 162.119 36.1686 152.824 36.1686C143.528 36.1686 136.599 29.6703 136.599 20.2885C136.599 10.8636 143.528 4.36523 152.824 4.36523ZM154.459 34.4903C161.216 34.4903 164.4 28.7235 164.4 22.6124C164.4 15.1672 159.408 6.08666 151.102 6.08666C144.389 6.08666 141.204 11.7674 141.204 17.8785C141.204 25.2376 146.325 34.2751 154.459 34.4903Z" fill="url(#paint6_linear_124_1185)"/>
<path d="M171.248 44.1235L171.164 42.6106L173.77 41.9802C173.77 41.8401 173.77 41.5879 173.77 41.2237C173.798 40.8875 173.826 40.4392 173.854 39.8788C173.882 39.3184 173.896 38.646 173.896 37.8615C173.924 37.077 173.938 36.1664 173.938 35.1297L174.022 24.749C174.022 23.9085 173.98 23.054 173.896 22.1854C173.84 21.3168 173.77 20.6164 173.686 20.084L170.996 19.4957V18.1088L176.628 16.5538L177.342 17.2262L177.132 19.5377H177.258C178.043 18.529 178.897 17.7726 179.822 17.2682C180.774 16.7359 181.797 16.4697 182.89 16.4697C184.431 16.4697 185.79 16.862 186.966 17.6465C188.171 18.403 189.11 19.4536 189.782 20.7985C190.483 22.1153 190.833 23.6423 190.833 25.3795C190.833 27.2286 190.413 28.8957 189.572 30.3807C188.732 31.8656 187.583 33.0424 186.126 33.911C184.697 34.7515 183.072 35.1718 181.251 35.1718C180.578 35.1718 179.878 35.1017 179.149 34.9616C178.421 34.8215 177.777 34.6534 177.216 34.4573V37.6093C177.216 38.674 177.23 39.5706 177.258 40.2991C177.314 41.0556 177.356 41.6159 177.384 41.9802L180.83 42.5265L180.746 44.1235H171.248ZM181.377 33.1124C182.498 33.1124 183.478 32.8463 184.319 32.3139C185.187 31.7816 185.86 30.9971 186.336 29.9604C186.84 28.9237 187.107 27.6629 187.135 26.178C187.163 24.8331 186.938 23.6423 186.462 22.6057C186.014 21.569 185.369 20.7565 184.529 20.1681C183.716 19.5517 182.778 19.2435 181.713 19.2435C180.844 19.2435 180.032 19.4536 179.275 19.8739C178.519 20.2662 177.833 20.8545 177.216 21.639V31.8096C177.777 32.2299 178.421 32.5521 179.149 32.7762C179.878 33.0004 180.62 33.1124 181.377 33.1124Z" fill="url(#paint7_linear_124_1185)"/>
<path d="M207.097 32.2719C206.565 33.1965 205.837 33.925 204.912 34.4573C203.987 34.9616 203.021 35.2138 202.012 35.2138C200.303 35.2138 198.902 34.6955 197.809 33.6588C196.717 32.6221 196.17 31.0671 196.17 28.9938L196.296 18.9493H193.355V18.0667L198.776 13.1496H199.575L199.49 17.9827L199.448 28.3214C199.448 29.7783 199.757 30.857 200.373 31.5574C201.017 32.2579 201.914 32.6081 203.063 32.6081C203.707 32.6081 204.296 32.482 204.828 32.2299C205.388 31.9777 205.893 31.6415 206.341 31.2212L207.097 32.2719ZM197.978 18.9493V16.848H205.837V18.9493H197.978Z" fill="url(#paint8_linear_124_1185)"/>
<path d="M207.98 34.8776L207.896 33.3226L210.712 32.7342C210.74 32.6221 210.754 32.426 210.754 32.1458C210.782 31.8656 210.81 31.4173 210.838 30.8009C210.866 30.1846 210.88 29.33 210.88 28.2373V25.4635C210.88 24.3148 210.852 23.2641 210.796 22.3115C210.74 21.3589 210.67 20.6164 210.586 20.084L207.77 19.4957V18.1088L213.738 16.5538L214.368 17.1421C214.284 18.0107 214.214 18.8653 214.158 19.7058C214.13 20.5463 214.116 21.527 214.116 22.6477V27.9431C214.116 29.2319 214.13 30.2966 214.158 31.1372C214.214 31.9777 214.27 32.5101 214.326 32.7342L217.142 33.3226L217.058 34.8776H207.98ZM212.519 11.8047C211.818 11.8047 211.202 11.5666 210.67 11.0902C210.165 10.6139 209.913 10.0256 209.913 9.32511C209.913 8.62465 210.165 8.03627 210.67 7.55997C211.202 7.08366 211.818 6.84551 212.519 6.84551C213.247 6.84551 213.85 7.08366 214.326 7.55997C214.802 8.03627 215.041 8.62465 215.041 9.32511C215.041 10.0256 214.802 10.6139 214.326 11.0902C213.85 11.5666 213.247 11.8047 212.519 11.8047Z" fill="url(#paint9_linear_124_1185)"/>
<path d="M228.489 35.2138C226.92 35.2138 225.477 34.8636 224.16 34.1631C222.844 33.4346 221.793 32.398 221.008 31.0531C220.224 29.6802 219.832 28.0552 219.832 26.178C219.832 24.3568 220.238 22.7177 221.05 21.2608C221.891 19.7758 223.026 18.6131 224.455 17.7726C225.912 16.904 227.537 16.4697 229.33 16.4697C230.563 16.4697 231.599 16.6238 232.44 16.932C233.28 17.2402 233.911 17.6465 234.331 18.1508C234.779 18.6551 235.003 19.1875 235.003 19.7478C235.003 20.1961 234.863 20.5744 234.583 20.8826C234.303 21.1627 233.911 21.3028 233.406 21.3028C232.958 21.3028 232.566 21.2188 232.23 21.0507C231.893 20.8826 231.487 20.5463 231.011 20.042L228.867 17.8986L230.38 18.3189C229.26 18.0667 228.181 18.1788 227.144 18.6551C226.108 19.1034 225.253 19.9019 224.581 21.0507C223.908 22.1714 223.572 23.6283 223.572 25.4215C223.572 27.6629 224.132 29.386 225.253 30.5908C226.402 31.7956 227.831 32.398 229.54 32.398C230.605 32.398 231.515 32.2019 232.272 31.8096C233.056 31.4173 233.799 30.7869 234.499 29.9184L235.634 30.885C234.849 32.3419 233.855 33.4346 232.65 34.1631C231.445 34.8636 230.058 35.2138 228.489 35.2138Z" fill="url(#paint10_linear_124_1185)"/>
<path d="M237.105 34.8776L237.021 33.3226L239.837 32.7342C239.865 32.6221 239.879 32.426 239.879 32.1458C239.907 31.8656 239.935 31.4173 239.963 30.8009C239.991 30.1846 240.005 29.33 240.005 28.2373V25.4635C240.005 24.3148 239.977 23.2641 239.921 22.3115C239.865 21.3589 239.794 20.6164 239.71 20.084L236.895 19.4957V18.1088L242.862 16.5538L243.493 17.1421C243.409 18.0107 243.339 18.8653 243.283 19.7058C243.255 20.5463 243.241 21.527 243.241 22.6477V27.9431C243.241 29.2319 243.255 30.2966 243.283 31.1372C243.339 31.9777 243.395 32.5101 243.451 32.7342L246.267 33.3226L246.183 34.8776H237.105ZM241.644 11.8047C240.943 11.8047 240.327 11.5666 239.794 11.0902C239.29 10.6139 239.038 10.0256 239.038 9.32511C239.038 8.62465 239.29 8.03627 239.794 7.55997C240.327 7.08366 240.943 6.84551 241.644 6.84551C242.372 6.84551 242.975 7.08366 243.451 7.55997C243.927 8.03627 244.165 8.62465 244.165 9.32511C244.165 10.0256 243.927 10.6139 243.451 11.0902C242.975 11.5666 242.372 11.8047 241.644 11.8047Z" fill="url(#paint11_linear_124_1185)"/>
<path d="M255.471 35.2138C254.35 35.2138 253.355 34.9896 252.487 34.5414C251.618 34.0931 250.932 33.5187 250.427 32.8182C249.951 32.1178 249.713 31.3893 249.713 30.6328C249.713 29.6802 250.021 28.8957 250.637 28.2793C251.254 27.6629 252.262 27.1306 253.663 26.6823L260.052 24.5389V22.3955C260.052 21.6951 259.841 21.0647 259.421 20.5043C259.001 19.9159 258.44 19.4536 257.74 19.1174C257.04 18.7812 256.255 18.6131 255.387 18.6131C254.686 18.6131 254.21 18.7672 253.958 19.0754C253.705 19.3556 253.551 19.9299 253.495 20.7985L253.411 22.5636C252.403 22.7878 251.548 22.7598 250.848 22.4796C250.147 22.1714 249.797 21.6811 249.797 21.0086C249.797 20.5323 249.993 20.056 250.385 19.5797C250.806 19.1034 251.352 18.6551 252.024 18.2348C252.697 17.7866 253.425 17.4083 254.21 17.1001C254.994 16.7919 255.765 16.5818 256.521 16.4697C258.595 16.4697 260.248 17.0161 261.48 18.1088C262.741 19.2015 263.386 20.6304 263.414 22.3955L263.33 29.4561C263.33 29.9884 263.344 30.5068 263.372 31.0111C263.428 31.5154 263.498 31.8937 263.582 32.1458L266.272 32.6501V33.953L264.212 34.7095C263.82 34.8496 263.456 34.9616 263.12 35.0457C262.783 35.1578 262.503 35.2138 262.279 35.2138C261.41 35.2138 260.85 34.7235 260.598 33.7428L260.136 32.1038H260.766C259.841 33.1405 258.945 33.925 258.076 34.4573C257.236 34.9616 256.367 35.2138 255.471 35.2138ZM256.605 32.7342C257.25 32.7342 257.852 32.5941 258.412 32.3139C258.973 32.0057 259.519 31.5434 260.052 30.927V26.5142L255.344 27.775C254.672 27.9431 254.182 28.2093 253.874 28.5735C253.593 28.9377 253.453 29.4 253.453 29.9604C253.453 30.6609 253.761 31.3053 254.378 31.8937C255.022 32.454 255.765 32.7342 256.605 32.7342Z" fill="url(#paint12_linear_124_1185)"/>
<path d="M268.457 34.8776L268.373 33.3646L270.979 32.7342C271.007 32.5381 271.021 32.2719 271.021 31.9357C271.049 31.5995 271.077 31.1372 271.105 30.5488C271.133 29.9604 271.147 29.1899 271.147 28.2373L271.189 25.0012C271.189 24.0766 271.147 23.166 271.063 22.2694C271.007 21.3449 270.937 20.6164 270.853 20.084L268.163 19.4957V18.1088L273.794 16.5538L274.509 17.2262L274.299 19.4536L274.425 19.4957C275.405 18.431 276.372 17.6605 277.325 17.1842C278.277 16.7079 279.314 16.4697 280.435 16.4697C281.471 16.4697 282.438 16.7359 283.335 17.2682C284.259 17.7726 285.002 18.5571 285.562 19.6217C286.15 20.6864 286.445 22.0453 286.445 23.6984V28.3634C286.445 29.372 286.459 30.2826 286.487 31.0951C286.543 31.9077 286.613 32.454 286.697 32.7342L289.302 33.3646L289.176 34.8776H280.729L280.645 33.3646L283.082 32.7342C283.11 32.5101 283.138 32.2299 283.166 31.8937C283.194 31.5574 283.208 31.1372 283.208 30.6328C283.236 30.1005 283.25 29.4421 283.25 28.6576V24.1186C283.25 22.8578 283.026 21.8632 282.578 21.1347C282.158 20.3782 281.625 19.8459 280.981 19.5377C280.337 19.2015 279.678 19.0334 279.006 19.0334C278.081 19.0334 277.213 19.2715 276.4 19.7478C275.616 20.1961 274.943 20.8265 274.383 21.639V27.9431C274.383 29.2319 274.397 30.2826 274.425 31.0951C274.481 31.8796 274.537 32.426 274.593 32.7342L277.199 33.3646L277.073 34.8776H268.457Z" fill="url(#paint13_linear_124_1185)"/>
<path d="M317.855 26.8729L318.759 27.2172C317.382 32.7688 311.787 36.2117 306.45 36.2117C297.585 36.2117 291.259 29.1969 291.259 20.4606C291.259 10.8206 298.317 4.75256 307.698 4.75256C311.313 4.75256 315.144 5.61327 318.242 7.98024L315.359 12.0256C313.035 8.84095 309.42 6.43095 305.633 6.43095C299.091 6.43095 296.251 12.6281 296.251 18.3949C296.251 25.797 300.813 32.5106 308.688 32.5106C312.475 32.5106 316.22 30.6601 317.855 26.8729Z" fill="url(#paint14_linear_124_1185)"/>
<path d="M320.402 34.8776L320.318 33.3226L323.05 32.7342C323.106 32.454 323.148 31.9917 323.176 31.3473C323.204 30.7029 323.218 29.8483 323.218 28.7836C323.246 27.719 323.26 26.4161 323.26 24.8751V19.6217C323.26 18.5571 323.246 17.4644 323.218 16.3436C323.218 15.2229 323.204 14.1722 323.176 13.1916C323.176 12.1829 323.162 11.3284 323.134 10.6279C323.134 9.89948 323.12 9.42317 323.092 9.19902L319.982 8.77875L319.898 7.43389L325.908 5.71078L326.706 6.29916C326.678 7.47591 326.65 8.65267 326.622 9.82943C326.594 11.0062 326.566 12.309 326.538 13.7379C326.538 15.1669 326.538 16.89 326.538 18.9073L326.496 25.6736C326.496 27.3267 326.51 28.8257 326.538 30.1705C326.594 31.4874 326.65 32.3419 326.706 32.7342L329.438 33.3226L329.354 34.8776H320.402Z" fill="url(#paint15_linear_124_1185)"/>
<path d="M338.768 35.2138C337.648 35.2138 336.653 34.9896 335.784 34.5414C334.916 34.0931 334.229 33.5187 333.725 32.8182C333.249 32.1178 333.011 31.3893 333.011 30.6328C333.011 29.6802 333.319 28.8957 333.935 28.2793C334.552 27.6629 335.56 27.1306 336.961 26.6823L343.349 24.5389V22.3955C343.349 21.6951 343.139 21.0647 342.719 20.5043C342.299 19.9159 341.738 19.4536 341.038 19.1174C340.337 18.7812 339.553 18.6131 338.684 18.6131C337.984 18.6131 337.507 18.7672 337.255 19.0754C337.003 19.3556 336.849 19.9299 336.793 20.7985L336.709 22.5636C335.7 22.7878 334.846 22.7598 334.145 22.4796C333.445 22.1714 333.095 21.6811 333.095 21.0086C333.095 20.5323 333.291 20.056 333.683 19.5797C334.103 19.1034 334.65 18.6551 335.322 18.2348C335.994 17.7866 336.723 17.4083 337.507 17.1001C338.292 16.7919 339.062 16.5818 339.819 16.4697C341.892 16.4697 343.545 17.0161 344.778 18.1088C346.039 19.2015 346.683 20.6304 346.711 22.3955L346.627 29.4561C346.627 29.9884 346.641 30.5068 346.669 31.0111C346.725 31.5154 346.795 31.8937 346.879 32.1458L349.569 32.6501V33.953L347.51 34.7095C347.118 34.8496 346.753 34.9616 346.417 35.0457C346.081 35.1578 345.801 35.2138 345.577 35.2138C344.708 35.2138 344.148 34.7235 343.896 33.7428L343.433 32.1038H344.064C343.139 33.1405 342.243 33.925 341.374 34.4573C340.533 34.9616 339.665 35.2138 338.768 35.2138ZM339.903 32.7342C340.547 32.7342 341.15 32.5941 341.71 32.3139C342.271 32.0057 342.817 31.5434 343.349 30.927V26.5142L338.642 27.775C337.97 27.9431 337.479 28.2093 337.171 28.5735C336.891 28.9377 336.751 29.4 336.751 29.9604C336.751 30.6609 337.059 31.3053 337.676 31.8937C338.32 32.454 339.062 32.7342 339.903 32.7342Z" fill="url(#paint16_linear_124_1185)"/>
<path d="M358.689 35.2138C357.652 35.2138 356.616 35.1017 355.579 34.8776C354.542 34.6254 353.66 34.3032 352.931 33.911L352.721 29.4141H354.781L355.621 32.44C356.602 33.1124 357.722 33.4487 358.983 33.4487C359.936 33.4487 360.706 33.2245 361.295 32.7762C361.883 32.2999 362.177 31.6695 362.177 30.885C362.177 30.1565 361.911 29.5261 361.379 28.9938C360.847 28.4334 359.81 27.831 358.269 27.1866C356.28 26.3181 354.879 25.4915 354.066 24.707C353.254 23.8945 352.847 22.8578 352.847 21.597C352.847 20.5884 353.142 19.7058 353.73 18.9493C354.346 18.1648 355.187 17.5624 356.252 17.1421C357.316 16.6939 358.549 16.4697 359.95 16.4697C360.734 16.4697 361.533 16.5398 362.345 16.6798C363.158 16.8199 363.83 17.0021 364.363 17.2262L364.825 21.597H362.85L361.841 18.7392C361.561 18.5711 361.225 18.445 360.832 18.3609C360.44 18.2489 360.02 18.1928 359.572 18.1928C358.591 18.1928 357.807 18.431 357.218 18.9073C356.63 19.3556 356.336 19.944 356.336 20.6724C356.336 21.513 356.658 22.1994 357.302 22.7317C357.947 23.2361 359.081 23.8665 360.706 24.623C362.556 25.4635 363.844 26.29 364.573 27.1026C365.301 27.9151 365.666 28.8957 365.666 30.0445C365.666 31.5574 365.007 32.8042 363.69 33.7849C362.373 34.7375 360.706 35.2138 358.689 35.2138Z" fill="url(#paint17_linear_124_1185)"/>
<path d="M375.584 35.2138C374.547 35.2138 373.511 35.1017 372.474 34.8776C371.437 34.6254 370.555 34.3032 369.826 33.911L369.616 29.4141H371.675L372.516 32.44C373.497 33.1124 374.617 33.4487 375.878 33.4487C376.831 33.4487 377.601 33.2245 378.19 32.7762C378.778 32.2999 379.072 31.6695 379.072 30.885C379.072 30.1565 378.806 29.5261 378.274 28.9938C377.741 28.4334 376.705 27.831 375.164 27.1866C373.174 26.3181 371.774 25.4915 370.961 24.707C370.149 23.8945 369.742 22.8578 369.742 21.597C369.742 20.5884 370.036 19.7058 370.625 18.9493C371.241 18.1648 372.082 17.5624 373.146 17.1421C374.211 16.6939 375.444 16.4697 376.845 16.4697C377.629 16.4697 378.428 16.5398 379.24 16.6798C380.053 16.8199 380.725 17.0021 381.258 17.2262L381.72 21.597H379.745L378.736 18.7392C378.456 18.5711 378.12 18.445 377.727 18.3609C377.335 18.2489 376.915 18.1928 376.467 18.1928C375.486 18.1928 374.701 18.431 374.113 18.9073C373.525 19.3556 373.231 19.944 373.231 20.6724C373.231 21.513 373.553 22.1994 374.197 22.7317C374.842 23.2361 375.976 23.8665 377.601 24.623C379.451 25.4635 380.739 26.29 381.468 27.1026C382.196 27.9151 382.561 28.8957 382.561 30.0445C382.561 31.5574 381.902 32.8042 380.585 33.7849C379.268 34.7375 377.601 35.2138 375.584 35.2138Z" fill="url(#paint18_linear_124_1185)"/>
<path d="M394.664 35.2138C393.039 35.2138 391.568 34.8496 390.251 34.1211C388.963 33.3926 387.926 32.356 387.141 31.0111C386.385 29.6382 386.007 28.0272 386.007 26.178C386.007 24.1887 386.413 22.4656 387.226 21.0086C388.038 19.5517 389.103 18.431 390.42 17.6465C391.736 16.8339 393.151 16.4417 394.664 16.4697C396.85 16.4977 398.559 17.2262 399.792 18.6551C401.024 20.084 401.641 22.1013 401.641 24.707V25.4635H388.739V23.6143H398.867L398.405 24.1607V23.2781C398.405 21.6531 398.04 20.4062 397.312 19.5377C396.584 18.6691 395.589 18.2348 394.328 18.2348C393.544 18.2348 392.787 18.473 392.059 18.9493C391.33 19.3976 390.742 20.098 390.293 21.0507C389.845 21.9753 389.621 23.152 389.621 24.5809V25.0853C389.621 27.3827 390.181 29.1759 391.302 30.4647C392.451 31.7536 393.922 32.398 395.715 32.398C396.696 32.398 397.578 32.2019 398.363 31.8096C399.147 31.4173 399.904 30.7869 400.632 29.9184L401.683 30.885C400.898 32.3419 399.904 33.4346 398.699 34.1631C397.494 34.8636 396.149 35.2138 394.664 35.2138Z" fill="url(#paint19_linear_124_1185)"/>
<path d="M411.391 35.2138C410.354 35.2138 409.318 35.1017 408.281 34.8776C407.244 34.6254 406.362 34.3032 405.633 33.911L405.423 29.4141H407.483L408.323 32.44C409.304 33.1124 410.424 33.4487 411.685 33.4487C412.638 33.4487 413.408 33.2245 413.997 32.7762C414.585 32.2999 414.879 31.6695 414.879 30.885C414.879 30.1565 414.613 29.5261 414.081 28.9938C413.548 28.4334 412.512 27.831 410.971 27.1866C408.982 26.3181 407.581 25.4915 406.768 24.707C405.956 23.8945 405.549 22.8578 405.549 21.597C405.549 20.5884 405.844 19.7058 406.432 18.9493C407.048 18.1648 407.889 17.5624 408.953 17.1421C410.018 16.6939 411.251 16.4697 412.652 16.4697C413.436 16.4697 414.235 16.5398 415.047 16.6798C415.86 16.8199 416.532 17.0021 417.065 17.2262L417.527 21.597H415.552L414.543 18.7392C414.263 18.5711 413.927 18.445 413.534 18.3609C413.142 18.2489 412.722 18.1928 412.274 18.1928C411.293 18.1928 410.508 18.431 409.92 18.9073C409.332 19.3556 409.038 19.944 409.038 20.6724C409.038 21.513 409.36 22.1994 410.004 22.7317C410.649 23.2361 411.783 23.8665 413.408 24.623C415.258 25.4635 416.546 26.29 417.275 27.1026C418.003 27.9151 418.368 28.8957 418.368 30.0445C418.368 31.5574 417.709 32.8042 416.392 33.7849C415.075 34.7375 413.408 35.2138 411.391 35.2138Z" fill="url(#paint20_linear_124_1185)"/>
<defs>
<linearGradient id="paint0_linear_124_1185" x1="-4.03103e-08" y1="24.2444" x2="514.505" y2="81.1763" gradientUnits="userSpaceOnUse">
<stop stop-color="#A8BCEC"/>
<stop offset="1" stop-color="#5783EC"/>
</linearGradient>
<linearGradient id="paint1_linear_124_1185" x1="-4.03103e-08" y1="24.2444" x2="514.505" y2="81.1763" gradientUnits="userSpaceOnUse">
<stop stop-color="#A8BCEC"/>
<stop offset="1" stop-color="#5783EC"/>
</linearGradient>
<linearGradient id="paint2_linear_124_1185" x1="-4.03103e-08" y1="24.2444" x2="514.505" y2="81.1763" gradientUnits="userSpaceOnUse">
<stop stop-color="#A8BCEC"/>
<stop offset="1" stop-color="#5783EC"/>
</linearGradient>
<linearGradient id="paint3_linear_124_1185" x1="-4.03103e-08" y1="24.2444" x2="514.505" y2="81.1763" gradientUnits="userSpaceOnUse">
<stop stop-color="#A8BCEC"/>
<stop offset="1" stop-color="#5783EC"/>
</linearGradient>
<linearGradient id="paint4_linear_124_1185" x1="-4.03103e-08" y1="24.2444" x2="514.505" y2="81.1763" gradientUnits="userSpaceOnUse">
<stop stop-color="#A8BCEC"/>
<stop offset="1" stop-color="#5783EC"/>
</linearGradient>
<linearGradient id="paint5_linear_124_1185" x1="-4.03103e-08" y1="24.2444" x2="514.505" y2="81.1763" gradientUnits="userSpaceOnUse">
<stop stop-color="#A8BCEC"/>
<stop offset="1" stop-color="#5783EC"/>
</linearGradient>
<linearGradient id="paint6_linear_124_1185" x1="-4.03103e-08" y1="24.2444" x2="514.505" y2="81.1763" gradientUnits="userSpaceOnUse">
<stop stop-color="#A8BCEC"/>
<stop offset="1" stop-color="#5783EC"/>
</linearGradient>
<linearGradient id="paint7_linear_124_1185" x1="-4.03103e-08" y1="24.2444" x2="514.505" y2="81.1763" gradientUnits="userSpaceOnUse">
<stop stop-color="#A8BCEC"/>
<stop offset="1" stop-color="#5783EC"/>
</linearGradient>
<linearGradient id="paint8_linear_124_1185" x1="-4.03103e-08" y1="24.2444" x2="514.505" y2="81.1763" gradientUnits="userSpaceOnUse">
<stop stop-color="#A8BCEC"/>
<stop offset="1" stop-color="#5783EC"/>
</linearGradient>
<linearGradient id="paint9_linear_124_1185" x1="-4.03103e-08" y1="24.2444" x2="514.505" y2="81.1763" gradientUnits="userSpaceOnUse">
<stop stop-color="#A8BCEC"/>
<stop offset="1" stop-color="#5783EC"/>
</linearGradient>
<linearGradient id="paint10_linear_124_1185" x1="-4.03103e-08" y1="24.2444" x2="514.505" y2="81.1763" gradientUnits="userSpaceOnUse">
<stop stop-color="#A8BCEC"/>
<stop offset="1" stop-color="#5783EC"/>
</linearGradient>
<linearGradient id="paint11_linear_124_1185" x1="-4.03103e-08" y1="24.2444" x2="514.505" y2="81.1763" gradientUnits="userSpaceOnUse">
<stop stop-color="#A8BCEC"/>
<stop offset="1" stop-color="#5783EC"/>
</linearGradient>
<linearGradient id="paint12_linear_124_1185" x1="-4.03103e-08" y1="24.2444" x2="514.505" y2="81.1763" gradientUnits="userSpaceOnUse">
<stop stop-color="#A8BCEC"/>
<stop offset="1" stop-color="#5783EC"/>
</linearGradient>
<linearGradient id="paint13_linear_124_1185" x1="-4.03103e-08" y1="24.2444" x2="514.505" y2="81.1763" gradientUnits="userSpaceOnUse">
<stop stop-color="#A8BCEC"/>
<stop offset="1" stop-color="#5783EC"/>
</linearGradient>
<linearGradient id="paint14_linear_124_1185" x1="-4.03103e-08" y1="24.2444" x2="514.505" y2="81.1763" gradientUnits="userSpaceOnUse">
<stop stop-color="#A8BCEC"/>
<stop offset="1" stop-color="#5783EC"/>
</linearGradient>
<linearGradient id="paint15_linear_124_1185" x1="-4.03103e-08" y1="24.2444" x2="514.505" y2="81.1763" gradientUnits="userSpaceOnUse">
<stop stop-color="#A8BCEC"/>
<stop offset="1" stop-color="#5783EC"/>
</linearGradient>
<linearGradient id="paint16_linear_124_1185" x1="-4.03103e-08" y1="24.2444" x2="514.505" y2="81.1763" gradientUnits="userSpaceOnUse">
<stop stop-color="#A8BCEC"/>
<stop offset="1" stop-color="#5783EC"/>
</linearGradient>
<linearGradient id="paint17_linear_124_1185" x1="-4.03103e-08" y1="24.2444" x2="514.505" y2="81.1763" gradientUnits="userSpaceOnUse">
<stop stop-color="#A8BCEC"/>
<stop offset="1" stop-color="#5783EC"/>
</linearGradient>
<linearGradient id="paint18_linear_124_1185" x1="-4.03103e-08" y1="24.2444" x2="514.505" y2="81.1763" gradientUnits="userSpaceOnUse">
<stop stop-color="#A8BCEC"/>
<stop offset="1" stop-color="#5783EC"/>
</linearGradient>
<linearGradient id="paint19_linear_124_1185" x1="-4.03103e-08" y1="24.2444" x2="514.505" y2="81.1763" gradientUnits="userSpaceOnUse">
<stop stop-color="#A8BCEC"/>
<stop offset="1" stop-color="#5783EC"/>
</linearGradient>
<linearGradient id="paint20_linear_124_1185" x1="-4.03103e-08" y1="24.2444" x2="514.505" y2="81.1763" gradientUnits="userSpaceOnUse">
<stop stop-color="#A8BCEC"/>
<stop offset="1" stop-color="#5783EC"/>
</linearGradient>
</defs>
</svg>
