<svg width="20" height="20" viewBox="0 0 20 20" fill="none" xmlns="http://www.w3.org/2000/svg">
<g clip-path="url(#clip0_123_1154)">
<path d="M5.9375 4.375H12.8125C12.9783 4.375 13.1372 4.30915 13.2544 4.19194C13.3717 4.07473 13.4375 3.91576 13.4375 3.75C13.4375 3.58424 13.3717 3.42527 13.2544 3.30806C13.1372 3.19085 12.9783 3.125 12.8125 3.125H5.9375C5.77174 3.125 5.61277 3.19085 5.49556 3.30806C5.37835 3.42527 5.3125 3.58424 5.3125 3.75C5.3125 3.91576 5.37835 4.07473 5.49556 4.19194C5.61277 4.30915 5.77174 4.375 5.9375 4.375ZM5.9375 6.25H12.8125C12.9783 6.25 13.1372 6.18415 13.2544 6.06694C13.3717 5.94973 13.4375 5.79076 13.4375 5.625C13.4375 5.45924 13.3717 5.30027 13.2544 5.18306C13.1372 5.06585 12.9783 5 12.8125 5H5.9375C5.77174 5 5.61277 5.06585 5.49556 5.18306C5.37835 5.30027 5.3125 5.45924 5.3125 5.625C5.3125 5.79076 5.37835 5.94973 5.49556 6.06694C5.61277 6.18415 5.77174 6.25 5.9375 6.25ZM5.9375 8.125H12.8125C12.9783 8.125 13.1372 8.05915 13.2544 7.94194C13.3717 7.82473 13.4375 7.66576 13.4375 7.5C13.4375 7.33424 13.3717 7.17527 13.2544 7.05806C13.1372 6.94085 12.9783 6.875 12.8125 6.875H5.9375C5.77174 6.875 5.61277 6.94085 5.49556 7.05806C5.37835 7.17527 5.3125 7.33424 5.3125 7.5C5.3125 7.66576 5.37835 7.82473 5.49556 7.94194C5.61277 8.05915 5.77174 8.125 5.9375 8.125ZM5.9375 10H12.8125C12.9783 10 13.1372 9.93415 13.2544 9.81694C13.3717 9.69973 13.4375 9.54076 13.4375 9.375C13.4375 9.20924 13.3717 9.05027 13.2544 8.93306C13.1372 8.81585 12.9783 8.75 12.8125 8.75H5.9375C5.77174 8.75 5.61277 8.81585 5.49556 8.93306C5.37835 9.05027 5.3125 9.20924 5.3125 9.375C5.3125 9.54076 5.37835 9.69973 5.49556 9.81694C5.61277 9.93415 5.77174 10 5.9375 10ZM10 10.625H5.9375C5.77174 10.625 5.61277 10.6908 5.49556 10.8081C5.37835 10.9253 5.3125 11.0842 5.3125 11.25C5.3125 11.4158 5.37835 11.5747 5.49556 11.6919C5.61277 11.8092 5.77174 11.875 5.9375 11.875H10C10.1658 11.875 10.3247 11.8092 10.4419 11.6919C10.5592 11.5747 10.625 11.4158 10.625 11.25C10.625 11.0842 10.5592 10.9253 10.4419 10.8081C10.3247 10.6908 10.1658 10.625 10 10.625Z" fill="#5783EC"/>
<path d="M15.625 10.675V2.5C15.625 2.00272 15.4275 1.52581 15.0758 1.17417C14.7242 0.822544 14.2473 0.625 13.75 0.625H2.5C2.00272 0.625 1.52581 0.822544 1.17417 1.17417C0.822544 1.52581 0.625 2.00272 0.625 2.5V3.75C0.625 3.91576 0.690848 4.07473 0.808058 4.19194C0.925268 4.30915 1.08424 4.375 1.25 4.375H3.125V18.75C3.125 18.9158 3.19085 19.0747 3.30806 19.1919C3.42527 19.3092 3.58424 19.375 3.75 19.375H15C16.1002 19.3665 17.1568 18.9438 17.9593 18.1911C18.7618 17.4384 19.2512 16.411 19.3301 15.3136C19.4089 14.2162 19.0714 13.1294 18.3847 12.2697C17.698 11.41 16.7127 10.8407 15.625 10.675ZM1.875 3.125V2.5C1.875 2.33424 1.94085 2.17527 2.05806 2.05806C2.17527 1.94085 2.33424 1.875 2.5 1.875C2.66576 1.875 2.82473 1.94085 2.94194 2.05806C3.05915 2.17527 3.125 2.33424 3.125 2.5V3.125H1.875ZM11.9406 18.125H4.375V2.5C4.37423 2.40262 4.36587 2.30545 4.35 2.20938C4.35 2.19375 4.35 2.175 4.35 2.15937C4.33352 2.07031 4.31054 1.98258 4.28125 1.89688V1.875H13.75C13.9158 1.875 14.0747 1.94085 14.1919 2.05806C14.3092 2.17527 14.375 2.33424 14.375 2.5V10.6687L14.2344 10.6969L14.0562 10.7313L13.8219 10.7906L13.6563 10.8375C13.575 10.8625 13.5 10.8937 13.4219 10.925L13.275 10.9812C13.1875 11.0187 13.1031 11.0625 13.0187 11.1063L12.9094 11.1594C12.7906 11.224 12.676 11.2938 12.5656 11.3688L12.4875 11.425C12.4031 11.4844 12.3219 11.5438 12.2438 11.6094L12.1312 11.7094C12.0687 11.7656 12.0063 11.8187 11.9438 11.8781L11.8281 12C11.775 12.0563 11.7188 12.1156 11.6688 12.175L11.5594 12.3094C11.5125 12.3687 11.4656 12.4312 11.4219 12.4937L11.325 12.6406C11.2833 12.7052 11.2438 12.7708 11.2063 12.8375L11.1219 12.9938C11.0875 13.0625 11.0531 13.1312 11.0219 13.2031C10.9906 13.275 10.975 13.3094 10.95 13.3656C10.925 13.4219 10.8937 13.5125 10.8687 13.5906C10.8437 13.6688 10.8313 13.7 10.8156 13.7531C10.8 13.8062 10.7719 13.9156 10.7531 13.9969C10.7344 14.0781 10.725 14.1031 10.7156 14.1562C10.7063 14.2094 10.6844 14.3406 10.6719 14.4344C10.6594 14.5281 10.6719 14.5281 10.6531 14.575C10.6531 14.7156 10.6313 14.8594 10.6313 15.0031C10.6309 15.1534 10.6382 15.3036 10.6531 15.4531C10.6531 15.5031 10.6531 15.55 10.675 15.5969C10.675 15.6937 10.7 15.7937 10.7219 15.8906C10.7438 15.9875 10.75 16.0031 10.7656 16.0594C10.7813 16.1156 10.8062 16.2281 10.8312 16.3094C10.8562 16.3906 10.875 16.4281 10.8969 16.4844C10.9187 16.5406 10.95 16.6375 10.9812 16.7125C11.0125 16.7875 11.0375 16.8281 11.0656 16.8844C11.0937 16.9406 11.1313 17.0281 11.1688 17.0969C11.2063 17.1656 11.2375 17.2063 11.2688 17.2625C11.3 17.3188 11.3469 17.3969 11.3906 17.4594C11.4344 17.5219 11.4687 17.5625 11.5062 17.6156C11.5437 17.6687 11.5969 17.7375 11.6437 17.7969C11.6906 17.8563 11.7313 17.8937 11.775 17.9406C11.8188 17.9875 11.875 18.0531 11.9313 18.1062L11.9406 18.125ZM15 18.125C14.3819 18.125 13.7777 17.9417 13.2638 17.5983C12.7499 17.255 12.3494 16.7669 12.1129 16.1959C11.8764 15.6249 11.8145 14.9965 11.935 14.3903C12.0556 13.7842 12.3533 13.2273 12.7903 12.7903C13.2273 12.3533 13.7842 12.0556 14.3903 11.935C14.9965 11.8145 15.6249 11.8764 16.1959 12.1129C16.7669 12.3494 17.255 12.7499 17.5983 13.2638C17.9417 13.7777 18.125 14.3819 18.125 15C18.125 15.8288 17.7958 16.6237 17.2097 17.2097C16.6237 17.7958 15.8288 18.125 15 18.125Z" fill="#5783EC"/>
<path d="M15.9375 14.375H15.625V13.4375C15.625 13.2717 15.5592 13.1128 15.4419 12.9956C15.3247 12.8783 15.1658 12.8125 15 12.8125C14.8342 12.8125 14.6753 12.8783 14.5581 12.9956C14.4408 13.1128 14.375 13.2717 14.375 13.4375V15C14.375 15.1658 14.4408 15.3247 14.5581 15.4419C14.6753 15.5592 14.8342 15.625 15 15.625H15.9375C16.1033 15.625 16.2622 15.5592 16.3794 15.4419C16.4967 15.3247 16.5625 15.1658 16.5625 15C16.5625 14.8342 16.4967 14.6753 16.3794 14.5581C16.2622 14.4408 16.1033 14.375 15.9375 14.375Z" fill="#5783EC"/>
</g>
<defs>
<clipPath id="clip0_123_1154">
<rect width="20" height="20" fill="white"/>
</clipPath>
</defs>
</svg>
