<svg width="106" height="94" viewBox="0 0 106 94" fill="none" xmlns="http://www.w3.org/2000/svg">
<path d="M33.8756 19.568C30.4051 19.568 27.2962 20.4356 24.5488 22.1708C21.946 23.906 19.9216 26.2919 18.4756 29.3285C17.0296 32.5097 16.3066 36.197 16.3066 40.3904C16.3066 44.0054 16.885 47.4035 18.0418 50.5847C19.1986 53.9105 20.8615 56.9471 23.0305 59.6945C25.3441 62.5865 28.0915 65.1893 31.2728 67.5029C34.5986 69.9611 38.3582 72.0578 42.5516 73.793L48.4079 65.9846C43.6361 63.5264 39.8042 60.779 36.9122 57.7424C34.0202 54.7058 32.5741 51.8138 32.5741 49.0664C32.5741 47.1866 33.0803 45.5237 34.0925 44.0777C35.1047 42.6317 36.5507 41.1134 38.4305 39.5228C40.7441 37.7876 42.3347 36.1247 43.2023 34.5341C44.2145 32.9435 44.7206 31.2806 44.7206 29.5454C44.7206 26.5088 43.7084 24.0506 41.684 22.1708C39.8042 20.4356 37.2014 19.568 33.8756 19.568ZM74.219 19.568C70.7486 19.568 67.6397 20.4356 64.8923 22.1708C62.2895 23.906 60.2651 26.2919 58.8191 29.3285C57.3731 32.5097 56.6501 36.197 56.6501 40.3904C56.6501 44.0054 57.2285 47.4035 58.3853 50.5847C59.5421 53.9105 61.205 56.9471 63.374 59.6945C65.6876 62.5865 68.435 65.1893 71.6162 67.5029C74.942 69.9611 78.7016 72.0578 82.895 73.793L88.7513 65.9846C83.9795 63.5264 80.1476 60.779 77.2556 57.7424C74.3636 54.7058 72.9176 51.8138 72.9176 49.0664C72.9176 47.1866 73.4237 45.5237 74.4359 44.0777C75.4481 42.6317 76.8941 41.1134 78.7739 39.5228C81.0875 37.7876 82.6781 36.1247 83.5457 34.5341C84.5579 32.9435 85.064 31.2806 85.064 29.5454C85.064 26.5088 84.0518 24.0506 82.0274 22.1708C80.1476 20.4356 77.5448 19.568 74.219 19.568Z" fill="#4E85FD"/>
</svg>
