<svg width="20" height="20" viewBox="0 0 20 20" fill="none" xmlns="http://www.w3.org/2000/svg">
<path d="M16.875 1.25H3.125C2.09125 1.25 1.25 2.09125 1.25 3.125V11.875C1.25 12.9088 2.09125 13.75 3.125 13.75H16.875C17.9088 13.75 18.75 12.9088 18.75 11.875V3.125C18.75 2.09125 17.9088 1.25 16.875 1.25ZM17.5 11.875C17.5 12.22 17.2194 12.5 16.875 12.5H3.125C2.78063 12.5 2.5 12.22 2.5 11.875V3.125C2.5 2.78063 2.78063 2.5 3.125 2.5H16.875C17.2194 2.5 17.5 2.78063 17.5 3.125V11.875ZM18.125 16.25H6.135C5.87625 15.5244 5.18875 15 4.375 15C3.56125 15 2.87375 15.5244 2.615 16.25H1.875C1.53 16.25 1.25 16.5294 1.25 16.875C1.25 17.2206 1.53 17.5 1.875 17.5H2.615C2.87375 18.2256 3.56125 18.75 4.375 18.75C5.18875 18.75 5.87625 18.2256 6.135 17.5H18.125C18.47 17.5 18.75 17.2206 18.75 16.875C18.75 16.5294 18.47 16.25 18.125 16.25ZM4.375 17.5C4.03063 17.5 3.75 17.22 3.75 16.875C3.75 16.53 4.03063 16.25 4.375 16.25C4.71937 16.25 5 16.53 5 16.875C5 17.22 4.71937 17.5 4.375 17.5Z" fill="#5783EC"/>
<path d="M8.75035 10.6593C8.54098 10.6593 8.3316 10.6074 8.14223 10.5018C7.7466 10.2812 7.50098 9.86304 7.50098 9.40992V5.59117C7.50098 5.13804 7.74723 4.71929 8.14223 4.49929C8.53785 4.27867 9.02348 4.28992 9.40785 4.52804L12.4947 6.43742C12.866 6.66742 13.0872 7.06429 13.0872 7.50054C13.0872 7.93679 12.866 8.33367 12.4954 8.56367L9.40848 10.4737C9.20785 10.598 8.9791 10.6599 8.75098 10.6599L8.75035 10.6593ZM8.74723 5.58867L8.75035 9.40929L11.8372 7.49992L8.74723 5.58867Z" fill="#0A225C"/>
</svg>
